<svg xmlns="http://www.w3.org/2000/svg" viewBox="0 0 153.81 157.51"><defs><style>.cls-1{isolation:isolate;}.cls-2{fill:#952;}.cls-3{fill:#c68400;}.cls-4{fill:#bd7e00;}.cls-5{fill:#b57800;}.cls-6{fill:#ac7200;}.cls-7{fill:#a36c00;}.cls-8{fill:#9a6600;}.cls-9{fill:#916000;}.cls-10{fill:#885b00;}.cls-11{fill:#7f5500;}.cls-12{fill:#774f00;}.cls-13{fill:#6d4800;}.cls-14{fill:#644300;}.cls-15{fill:#5b3d00;}.cls-16{fill:#523700;}.cls-17{fill:#493100;}.cls-18{fill:#402b00;}.cls-19{fill:#382500;}.cls-20{fill:#2f1f00;}.cls-21{fill:#261900;}.cls-22{fill:#1d1d1b;}.cls-23,.cls-24{fill:#fff;}.cls-23,.cls-25{stroke:#000;stroke-miterlimit:10;}.cls-25{fill:none;stroke-width:2px;}.cls-26{mix-blend-mode:soft-light;}.cls-27{fill:#e3c2b3;}.cls-28{fill:#bb6944;}.cls-29{fill:#fffefe;}.cls-30{fill:#f5e9e4;}.cls-31{fill:#f9f3f0;}.cls-32{fill:#fcf7f5;}.cls-33{fill:#f8f0ed;}.cls-34{fill:#e4c2b3;}.cls-35{fill:#faf3f0;}.cls-36{fill:#fefdfd;}.cls-37{fill:#f6ebe6;}.cls-38{fill:#fdfbfa;}.cls-39{fill:#e6c8ba;}.cls-40{fill:#e5c5b6;}.cls-41{fill:#ce9277;}.cls-42{fill:#e4c4b5;}.cls-43{fill:#c98769;}.cls-44{fill:#be6f4b;}.cls-45{fill:#c07452;}.cls-46{fill:#c17553;}.cls-47{fill:#c37c5b;}.cls-48{fill:#c68161;}.cls-49{fill:#bd6d48;}.cls-50{fill:#c37a59;}.cls-51{fill:#bc6b46;}.cls-52{fill:#bf714e;}.cls-53{fill:#bb6a45;}.cls-54{fill:#c88668;}.cls-55{fill:#c27958;}.cls-56{fill:#bc6a45;}.cls-57{fill:#c07553;}.cls-58{fill:#c07351;}.cls-59{fill:#c78466;}.cls-60{fill:#c17756;}.cls-61{fill:#c58061;}.cls-62{fill:#be704d;}.cls-63{fill:#bc6b47;}.cls-64{fill:#bd6e4b;}.cls-65{fill:#bd6e4a;}.cls-66{fill:#c78365;}.cls-67{fill:#ca8b6e;}</style></defs><g class="cls-1"><g id="Camada_2" data-name="Camada 2"><g id="Camada_3" data-name="Camada 3"><path class="cls-2" d="M76.86,78.76l-7,71.29"/><path class="cls-3" d="M52.92,1a14.17,14.17,0,1,1-8.05,18.36A14.17,14.17,0,0,1,52.92,1Z"/><path class="cls-4" d="M43.11,96.51a7.88,7.88,0,1,1-4.58-10.17A7.9,7.9,0,0,1,43.11,96.51Z"/><path class="cls-5" d="M60.07,7.7a8.46,8.46,0,1,1-.5,12A8.46,8.46,0,0,1,60.07,7.7Z"/><path class="cls-6" d="M42.85,47.39a8.09,8.09,0,1,1,3.67-10.84A8.09,8.09,0,0,1,42.85,47.39Z"/><path class="cls-7" d="M96,64.92a4.25,4.25,0,1,1-5,3.39A4.27,4.27,0,0,1,96,64.92Z"/><path class="cls-8" d="M84.76,82A5.13,5.13,0,1,1,82.69,75,5.13,5.13,0,0,1,84.76,82Z"/><path class="cls-9" d="M73.62,30.24a4.25,4.25,0,1,1-5.68,2A4.26,4.26,0,0,1,73.62,30.24Z"/><path class="cls-10" d="M66,58a10.33,10.33,0,1,1,2.72-14.35A10.33,10.33,0,0,1,66,58Z"/><path class="cls-11" d="M32.39,94.45a4.25,4.25,0,1,1,6,.31A4.25,4.25,0,0,1,32.39,94.45Z"/><path class="cls-12" d="M67.06,81.35A6,6,0,1,1,75.42,80,6,6,0,0,1,67.06,81.35Z"/><path class="cls-13" d="M107.63,18.76a7.1,7.1,0,1,1,9.56,3A7.1,7.1,0,0,1,107.63,18.76Z"/><path class="cls-14" d="M48.56,94.07a4.25,4.25,0,1,1-3.15,5.12A4.24,4.24,0,0,1,48.56,94.07Z"/><path class="cls-15" d="M83.08,7a10.57,10.57,0,1,1-3.51,14.52A10.56,10.56,0,0,1,83.08,7Z"/><path class="cls-16" d="M105.21,111a7.43,7.43,0,1,1-10.42,1.34A7.43,7.43,0,0,1,105.21,111Z"/><path class="cls-17" d="M90,40.13a4.25,4.25,0,1,1-1-5.93A4.25,4.25,0,0,1,90,40.13Z"/><path class="cls-18" d="M21.63,51.12a4.25,4.25,0,1,1,4-4.47A4.24,4.24,0,0,1,21.63,51.12Z"/><path class="cls-19" d="M45.19,115.46a14.06,14.06,0,1,1-19.56,3.63A14.05,14.05,0,0,1,45.19,115.46Z"/><path class="cls-20" d="M129.38,95.67a11.46,11.46,0,1,1-14.9,6.37A11.47,11.47,0,0,1,129.38,95.67Z"/><path class="cls-21" d="M59,9.88a4.54,4.54,0,1,1,6.24-1.55A4.55,4.55,0,0,1,59,9.88Z"/><path class="cls-22" d="M42.31,141.82A12.68,12.68,0,1,1,27,132.51,12.68,12.68,0,0,1,42.31,141.82Z"/></g><g id="Camada_1-2" data-name="Camada 1"><rect class="cls-23" x="1.64" y="51.23" width="150.45" height="16.46"/><rect class="cls-23" x="2.48" y="73.96" width="150.45" height="16.46"/><circle class="cls-24" cx="76.86" cy="114.9" r="20.41"/><circle class="cls-25" cx="76.86" cy="114.9" r="20.41"/><circle class="cls-24" cx="76.86" cy="114.9" r="20.41"/><path class="cls-24" d="M62.46,114.09l30.7.5A7.53,7.53,0,0,1,86,106.48l-2.52,16.93,5.58-7.1"/><path class="cls-25" d="M62.46,114.09l30.7.5A7.53,7.53,0,0,1,86,106.48l-2.52,16.93,5.58-7.1"/><path class="cls-24" d="M62.46,114.09l30.7.5A7.53,7.53,0,0,1,86,106.48l-2.52,16.93,5.58-7.1"/><path class="cls-22" d="M4,52.14c8.6-.09,17.45-.74,26.3-.55,10.83.24,21.51,1.28,32.13,1.07,29.45-.62,59.41-1.59,89.68-2.07h.63v.65L153,67.69v.85h-.87q-12.72.14-25.43.13c-30.71,0-62.51,1.52-93,.2C23.35,68.44,16.46,68.55,6,69c-1.18.05-2.54.09-4.37.12l-1.39,0,0-1.44C.08,62.34.41,55,.75,50.35a44.94,44.94,0,0,1,.19,8.77C.74,61.9.32,64.77.1,67.69L0,69.11l1.64.11.71,0a160.53,160.53,0,0,0,18.94-.33c11.25-.55,23.23.38,34.15.36,23.5-.06,48.52-1.06,72.79-.58,8.42.16,16.06-.11,23.86-.38l.67,0,0-.63c-.08-2.7-.17-5.42-.26-8.2s.09-5.56.26-8.26l0-.61-.69,0c-2.78-.18-5.56-.37-8.46-.34-5.57.06-11.33,1.16-17.26,1a2.09,2.09,0,0,0,.93-.26c-3.46,1-8.65,1.19-14.17,1.1s-11.39-.44-16-.45c-10.29,0-21.19.19-31,.61-10.42.43-20.66-.22-31.36-.58-5.54-.19-10.89.11-16.19.34a158.64,158.64,0,0,1-16,.09"/><path class="cls-22" d="M4.83,74.86c8.59-.09,17.45-.74,26.29-.54,10.84.23,21.52,1.28,32.13,1.06,29.46-.62,59.41-1.58,89.68-2.07h.64V74l.22,16.45v.86h-.88q-12.7.12-25.42.12c-30.72,0-62.51,1.52-93,.21-10.32-.44-17.2-.33-27.65.11-1.19,0-2.54.09-4.38.11l-1.38,0,0-1.44c-.13-5.34.2-12.72.54-17.34a45.75,45.75,0,0,1,.19,8.77c-.2,2.79-.63,5.66-.84,8.57l-.1,1.42L2.48,92l.72,0a162.79,162.79,0,0,0,18.94-.33c11.24-.55,23.23.37,34.15.35,23.5-.06,48.51-1,72.78-.58,8.42.17,16.06-.11,23.86-.38l.67,0v-.63c-.09-2.7-.17-5.42-.26-8.2s.08-5.55.25-8.25l0-.61-.69,0c-2.78-.17-5.56-.36-8.46-.33-5.56,0-11.33,1.15-17.25,1a2.18,2.18,0,0,0,.93-.26c-3.46,1-8.65,1.19-14.18,1.1s-11.38-.43-16-.44c-10.29,0-21.19.19-31,.6-10.43.44-20.67-.22-31.37-.58-5.53-.19-10.89.11-16.19.34a153,153,0,0,1-16,.09"/><path class="cls-22" d="M96,115.42c0,.79.08,1.61,0,2.43a15.18,15.18,0,0,1-.21,2.51,13.93,13.93,0,0,1-.61,2.47A10.07,10.07,0,0,1,94,125a14.78,14.78,0,0,1-4.26,4c-.76.56-1.62,1-2.4,1.49s-1.63.92-2.49,1.37a19.17,19.17,0,0,1-11.56,2.41,20.5,20.5,0,0,1-6-1.62,21.11,21.11,0,0,1-5.26-3.51,19.68,19.68,0,0,1-4-5.07,22.71,22.71,0,0,1-1.35-3,21.83,21.83,0,0,1-.82-3.18,20.16,20.16,0,0,1,2-12.89A22.62,22.62,0,0,1,72.17,93.43a19.74,19.74,0,0,1,9.6-.09,18.23,18.23,0,0,1,8.3,4.48,13.41,13.41,0,0,1,1.06,1.08c.33.35.67.67,1,1,.56.71,1.18,1.32,1.68,2l.82,1,.76,1.11.41.57.37.62c.25.43.53.86.79,1.33s.52,1.13.79,1.8.42,1.44.59,2.19.23,1.55.26,2.28,0,1.43,0,2a5.86,5.86,0,0,1-.77-3.39c0-.29,0-.59.06-.89v-.9a8.26,8.26,0,0,0-.1-1.8,12.18,12.18,0,0,0-4-6.63,56.38,56.38,0,0,0-5.22-4.63,17.19,17.19,0,0,0-6.22-3.08,19.84,19.84,0,0,0-7.33-.42,21.72,21.72,0,0,0-7.07,2.2,24.29,24.29,0,0,0-10.3,10.24,14.73,14.73,0,0,0-1.78,6.25,21.93,21.93,0,0,0,0,3.14,25.39,25.39,0,0,0,.52,3.1c.49,2.16.33,4.4,1.45,6.46a6.24,6.24,0,0,0,1,1.37,9.58,9.58,0,0,0,1.26,1.2,28,28,0,0,1,2.54,2.3.76.76,0,0,0-.45-.08c1.73.25,3.21,1.39,5,2.45a18.23,18.23,0,0,0,5.34,2.56,16.23,16.23,0,0,0,11.33-1.48c1.7-1,3.35-1.79,4.9-2.84A20.94,20.94,0,0,0,93,126.38a10.92,10.92,0,0,0,2.3-5.65A57.48,57.48,0,0,1,96,114.9"/><path class="cls-22" d="M96,115.42c0,.79.08,1.61,0,2.43a15.18,15.18,0,0,1-.21,2.51,13.93,13.93,0,0,1-.61,2.47A10.07,10.07,0,0,1,94,125a14.78,14.78,0,0,1-4.26,4c-.76.56-1.62,1-2.4,1.49s-1.63.92-2.49,1.37a19.17,19.17,0,0,1-11.56,2.41,20.5,20.5,0,0,1-6-1.62,21.11,21.11,0,0,1-5.26-3.51,19.68,19.68,0,0,1-4-5.07,22.71,22.71,0,0,1-1.35-3,21.83,21.83,0,0,1-.82-3.18,20.16,20.16,0,0,1,2-12.89A22.62,22.62,0,0,1,72.17,93.43a19.74,19.74,0,0,1,9.6-.09,18.23,18.23,0,0,1,8.3,4.48,13.41,13.41,0,0,1,1.06,1.08c.33.35.67.67,1,1,.56.71,1.18,1.32,1.68,2l.82,1,.76,1.11.41.57.37.62c.25.43.53.86.79,1.33s.52,1.13.79,1.8.42,1.44.59,2.19.23,1.55.26,2.28,0,1.43,0,2a5.86,5.86,0,0,1-.77-3.39c0-.29,0-.59.06-.89v-.9a8.26,8.26,0,0,0-.1-1.8,12.18,12.18,0,0,0-4-6.63,56.38,56.38,0,0,0-5.22-4.63,17.19,17.19,0,0,0-6.22-3.08,19.84,19.84,0,0,0-7.33-.42,21.72,21.72,0,0,0-7.07,2.2,24.29,24.29,0,0,0-10.3,10.24,14.73,14.73,0,0,0-1.78,6.25,21.93,21.93,0,0,0,0,3.14,25.39,25.39,0,0,0,.52,3.1c.49,2.16.33,4.4,1.45,6.46a6.24,6.24,0,0,0,1,1.37,9.58,9.58,0,0,0,1.26,1.2,28,28,0,0,1,2.54,2.3.76.76,0,0,0-.45-.08c1.73.25,3.21,1.39,5,2.45a18.23,18.23,0,0,0,5.34,2.56,16.23,16.23,0,0,0,11.33-1.48c1.7-1,3.35-1.79,4.9-2.84A20.94,20.94,0,0,0,93,126.38a10.92,10.92,0,0,0,2.3-5.65A57.48,57.48,0,0,1,96,114.9"/><path class="cls-22" d="M96,115.42c0,.79.08,1.61,0,2.43a15.18,15.18,0,0,1-.21,2.51,13.93,13.93,0,0,1-.61,2.47A10.07,10.07,0,0,1,94,125a14.78,14.78,0,0,1-4.26,4c-.76.56-1.62,1-2.4,1.49s-1.63.92-2.49,1.37a19.17,19.17,0,0,1-11.56,2.41,20.5,20.5,0,0,1-6-1.62,21.11,21.11,0,0,1-5.26-3.51,19.68,19.68,0,0,1-4-5.07,22.71,22.71,0,0,1-1.35-3,21.83,21.83,0,0,1-.82-3.18,20.16,20.16,0,0,1,2-12.89A22.62,22.62,0,0,1,72.17,93.43a19.74,19.74,0,0,1,9.6-.09,18.23,18.23,0,0,1,8.3,4.48,13.41,13.41,0,0,1,1.06,1.08c.33.35.67.67,1,1,.56.71,1.18,1.32,1.68,2l.82,1,.76,1.11.41.57.37.62c.25.43.53.86.79,1.33s.52,1.13.79,1.8.42,1.44.59,2.19.23,1.55.26,2.28,0,1.43,0,2a5.86,5.86,0,0,1-.77-3.39c0-.29,0-.59.06-.89v-.9a8.26,8.26,0,0,0-.1-1.8,12.18,12.18,0,0,0-4-6.63,56.38,56.38,0,0,0-5.22-4.63,17.19,17.19,0,0,0-6.22-3.08,19.84,19.84,0,0,0-7.33-.42,21.72,21.72,0,0,0-7.07,2.2,24.29,24.29,0,0,0-10.3,10.24,14.73,14.73,0,0,0-1.78,6.25,21.93,21.93,0,0,0,0,3.14,25.39,25.39,0,0,0,.52,3.1c.49,2.16.33,4.4,1.45,6.46a6.24,6.24,0,0,0,1,1.37,9.58,9.58,0,0,0,1.26,1.2,28,28,0,0,1,2.54,2.3.76.76,0,0,0-.45-.08c1.73.25,3.21,1.39,5,2.45a18.23,18.23,0,0,0,5.34,2.56,16.23,16.23,0,0,0,11.33-1.48c1.7-1,3.35-1.79,4.9-2.84A20.94,20.94,0,0,0,93,126.38a10.92,10.92,0,0,0,2.3-5.65A57.48,57.48,0,0,1,96,114.9"/><path class="cls-22" d="M62.73,115.36c1.82-.16,3.78-1,5.58-.72,2.19.33,4.27,1.52,6.52,1.26,6.11-.72,12.23-1.53,18.34-1.92v1.23a7.37,7.37,0,0,1-2.47-.29,8.28,8.28,0,0,1-2.25-1.11,8.38,8.38,0,0,1-3-4,8.7,8.7,0,0,1-.49-3.5l2.14.3c-.49,5.36-.39,10.91-2.26,16-.12.33-.23.65-.32.94l-1.81-.78a13.07,13.07,0,0,0,2.69-3.89,12.52,12.52,0,0,1,2.7-3.35c.35,1.72-1.44,1.89-2.45,2.58-1.17.8-1.6,2.08-2.16,3.28a6.82,6.82,0,0,1-.83,1.34l1.92.83c.26-1.82,1.09-3.61,1.33-5.34.51-3.73.49-7.73,1-11.62l-1.8-.25a9.49,9.49,0,0,0,.42,3.83,6,6,0,0,0,2.2,3A8.21,8.21,0,0,0,91,114.62c.73.17,1.39.5,2.16.74l0-1.53a4.31,4.31,0,0,0-1.37-.25c-1.14,0-2.37,1.12-3.59,1a.4.4,0,0,0,.2-.26c-1.51,2-4.36.62-6.28.57a27.3,27.3,0,0,0-6.49.6c-2.22.48-4.28-.23-6.43-.7s-4.64,1.43-6.78.58"/><path class="cls-22" d="M62.73,115.36c1.82-.16,3.78-1,5.58-.72,2.19.33,4.27,1.52,6.52,1.26,6.11-.72,12.23-1.53,18.34-1.92v1.23a7.37,7.37,0,0,1-2.47-.29,8.28,8.28,0,0,1-2.25-1.11,8.38,8.38,0,0,1-3-4,8.7,8.7,0,0,1-.49-3.5l2.14.3c-.49,5.36-.39,10.91-2.26,16-.12.33-.23.65-.32.94l-1.81-.78a13.07,13.07,0,0,0,2.69-3.89,12.52,12.52,0,0,1,2.7-3.35c.35,1.72-1.44,1.89-2.45,2.58-1.17.8-1.6,2.08-2.16,3.28a6.82,6.82,0,0,1-.83,1.34l1.92.83c.26-1.82,1.09-3.61,1.33-5.34.51-3.73.49-7.73,1-11.62l-1.8-.25a9.49,9.49,0,0,0,.42,3.83,6,6,0,0,0,2.2,3A8.21,8.21,0,0,0,91,114.62c.73.17,1.39.5,2.16.74l0-1.53a4.31,4.31,0,0,0-1.37-.25c-1.14,0-2.37,1.12-3.59,1a.4.4,0,0,0,.2-.26c-1.51,2-4.36.62-6.28.57a27.3,27.3,0,0,0-6.49.6c-2.22.48-4.28-.23-6.43-.7s-4.64,1.43-6.78.58"/><path class="cls-22" d="M62.73,115.36c1.82-.16,3.78-1,5.58-.72,2.19.33,4.27,1.52,6.52,1.26,6.11-.72,12.23-1.53,18.34-1.92v1.23a7.37,7.37,0,0,1-2.47-.29,8.28,8.28,0,0,1-2.25-1.11,8.38,8.38,0,0,1-3-4,8.7,8.7,0,0,1-.49-3.5l2.14.3c-.49,5.36-.39,10.91-2.26,16-.12.33-.23.65-.32.94l-1.81-.78a13.07,13.07,0,0,0,2.69-3.89,12.52,12.52,0,0,1,2.7-3.35c.35,1.72-1.44,1.89-2.45,2.58-1.17.8-1.6,2.08-2.16,3.28a6.82,6.82,0,0,1-.83,1.34l1.92.83c.26-1.82,1.09-3.61,1.33-5.34.51-3.73.49-7.73,1-11.62l-1.8-.25a9.49,9.49,0,0,0,.42,3.83,6,6,0,0,0,2.2,3A8.21,8.21,0,0,0,91,114.62c.73.17,1.39.5,2.16.74l0-1.53a4.31,4.31,0,0,0-1.37-.25c-1.14,0-2.37,1.12-3.59,1a.4.4,0,0,0,.2-.26c-1.51,2-4.36.62-6.28.57a27.3,27.3,0,0,0-6.49.6c-2.22.48-4.28-.23-6.43-.7s-4.64,1.43-6.78.58"/></g><g id="Camada_2-2" data-name="Camada 2"><g class="cls-26"><path class="cls-27" d="M109.85,109.74h.22l0,1h-.21Z"/><path class="cls-24" d="M110,111.72h-.22l0-1H110Z"/><path class="cls-28" d="M109.85,109.74c-3.38-.16-6.76-.24-10.14-.29v-1q11.28.12,22.54,1.12l-.09,1-1.1-.09-.08,1-.88-.07.08-1-.22,0-.08,1-.22,0-.22,0-.21,0-1.32-.1c-.58,0-1.17-.1-1.75-.13H116l-2.41-.15-.44,0-.22,0-1.32-.07,0,1,1.31.08H113l.44,0,2.4.14h.22c.58,0,1.17.09,1.75.13l1.31.11h.22l.22,0,1.52.12-.08,1-1.52-.12-.08,1,2,.15-.09,1,.65,0-.09,1c-3.15-.26-6.31-.51-9.47-.68l0-1-.22,0,0,1c-1.72-.12-3.45-.16-5.18-.24l0-1h-.22l0,1c-3.67-.14-7.35-.2-11-.18v-1h-.22v1c-1.8,0-3.6,0-5.4.07l0-1h-.43a287,287,0,0,0-33.25,2.77l-.14-1-.21,0,.14,1c-1.29.18-2.57.4-3.86.59l-.3-2a288.54,288.54,0,0,1,35.83-3.35l.43,0,0-1h-.43A286.9,286.9,0,0,0,45,116.08l-.43.07.18,1,.43-.07c2.22-.38,4.44-.81,6.67-1.13l.31,1.94c-1.61.24-3.21.52-4.81.81s-3.21.56-4.8.88l-.19-1-.21,0,.19,1c-2.34.44-4.68.94-7,1.45l-.22-1-.85.18-.21-1,.42-.09-.21-1-.21,0-.22-1,1.08-.23.42,1.92.21,0-.42-1.93.65-.14.43-.09.2,1,.21,1,.21,0-.2-1-.21-1,.43-.09.21-.05.43-.09.43-.09.22,0,3.45-.68.65-.12-.19-1-.65.12-3.25.64-.19-1-.22,0,.2,1-.22,0-.43.1-.43.09-.21,0-.44.09-.21,0-.43.09-1.3.28-.21-1,.22,0-.21-1c2.09-.46,4.19-.92,6.3-1.31l.19,1,.22,0-.19-1,.43-.09-.18-1-.22.05-.19-1-.22,0,.19,1c-2.7.5-5.38,1.11-8.07,1.68l-.21-1,1.09-.23.22-.05-.22-1,3.29-.71.2,1,.22,0-.2-1,.22,0,.2,1,.22,0-.2-1,2.2-.44.19,1,.22,0-.19-1c5.43-1.09,10.89-2,16.36-2.75l.14,1,.22,0-.13-1a292.45,292.45,0,0,1,39.56-2.79v1H96v-1h3.59v1h.22v-1c2.84.06,5.68.09,8.52.23l0,1c4.77.16,9.53.51,14.28.9l-.09,1-1.55-.12-.08,1-.67,0,.08-1-.22,0-.08,1c-6.93-.55-13.89-.86-20.84-.92v-1h-.22v1h-3.1v-1h-.22v1c-5.32,0-10.65.17-16,.51l-.06-1-.22,0,.06,1c-2.44.12-4.87.34-7.31.52l-.08-1h-.22l.08,1Q58,109.72,44.3,112.2l-.22,0,.18,1,.21,0,.18,1c-.51.08-1,.17-1.52.28l-.21,0,.18,1,.21,0a287.23,287.23,0,0,1,46.06-4.87l0,1h.22l0-1,2.42,0,0,1h.22l0-1h.88v1h.22v-1h2.2v2h.22v-2c3.73,0,7.47,0,11.2.18l0,1h.21l0-1,2.64.11,0,1H110l0-1,0-1Zm.69,4,0-1h-.22l-.05,1Zm-4.28-2.14-.07,2h.22l.07-2ZM94.39,105.5v1h.22v-1Zm-.17,6.9v-1H94v1Zm2.19,2v-2h-.22v2Zm1.75-3v2h.22v-2Zm13.68,2.36.06-1h-.22l-.05,1Zm-73.73,4.65-.2-1-.21.05.2,1Zm1.07-.23-.2-1-.21,0,.19,1Zm-4.27.92-.21-1-.22,0,.22,1ZM55,108.46l.14,1,.22,0-.14-1Zm-1,1.14-.14-1-.22,0,.14,1Zm-12.47,8.14-.19-1-.22,0,.19,1Zm1.92-6.4.36,1.94.22,0-.36-1.93Zm.25,5,.36,1.94.22,0-.36-1.94Zm20.9-8.07-.1-1-.23,0,.11,1Zm1.11-.13-.1-1-.23,0,.11,1Zm26.45-1.59,0-1h-.22l0,1Zm.75,5.9,0-1h-.22l0,1Zm-.41,2,0-1h-.21v1Zm1.08,0v-1h-.22v1Zm-11.22-7.55,0-1-.23,0,.05,1Zm2.45-.1,0-1h-.22l0,1Z"/><path class="cls-24" d="M110.59,112.73l0,1h-.22l.05-1Z"/><path class="cls-24" d="M106.19,113.54l.07-2h.22l-.07,2Z"/><path class="cls-24" d="M94.4,106.49v-1h.22v1Z"/><path class="cls-24" d="M94.22,111.41v1H94v-1Z"/><path class="cls-24" d="M96.41,112.4v2h-.22v-2Z"/><path class="cls-29" d="M98.15,113.39v-2h.22v2Z"/><path class="cls-24" d="M111.9,112.8l-.06,1h-.21l.05-1Z"/><path class="cls-24" d="M37.91,117.46l.2,1-.21,0-.2-1Z"/><path class="cls-24" d="M39,117.24l.2,1-.22,0-.19-1Z"/><path class="cls-27" d="M34.7,118.15l.21,1-.21,0-.22-1Z"/><path class="cls-30" d="M55.11,109.44l-.14-1,.22,0,.14,1Z"/><path class="cls-24" d="M53.87,108.62l.14,1-.22,0-.14-1Z"/><path class="cls-24" d="M41.35,116.77l.19,1-.22,0-.19-1Z"/><path class="cls-24" d="M43.82,113.28l-.36-1.94.22,0,.36,1.93Z"/><path class="cls-24" d="M44.07,118.25l-.36-1.94.22,0,.36,1.94Z"/><path class="cls-24" d="M64.51,107.26l.1,1-.22,0-.11-1Z"/><path class="cls-24" d="M65.62,107.13l.1,1-.22,0-.11-1Z"/><path class="cls-24" d="M92.15,105.54l0,1H92l0-1Z"/><path class="cls-24" d="M92.9,111.44l0,1H92.7l0-1Z"/><path class="cls-24" d="M92.49,113.42l0,1h-.22v-1Z"/><path class="cls-24" d="M93.58,113.4v1h-.22v-1Z"/><path class="cls-24" d="M82.33,105.84l0,1h-.22l-.05-1Z"/><path class="cls-24" d="M84.78,105.74l0,1H84.6l0-1Z"/><path class="cls-27" d="M112.88,110.88l-.06,1-1.31-.08,0-1Z"/><path class="cls-27" d="M119.24,111.31l-.08,1-1.31-.11.07-1Z"/><path class="cls-31" d="M116.1,112.06l.07-1c.58,0,1.17.09,1.75.13l-.07,1C117.27,112.15,116.68,112.09,116.1,112.06Z"/><path class="cls-32" d="M119.38,112.31h-.22l.08-1,.21,0Z"/><path class="cls-27" d="M119.38,112.31l.07-1,.22,0-.07,1Z"/><path class="cls-27" d="M113.48,111.91l-.44,0,.06-1,.44,0Z"/><path class="cls-33" d="M116,111.07l-.07,1-2.4-.14.06-1Z"/><path class="cls-30" d="M112.82,111.87l.06-1,.22,0-.06,1Z"/><path class="cls-34" d="M116.1,112.06h-.22l.07-1h.22Z"/><path class="cls-35" d="M37.74,114.47l.22,0,.19,1,3.25-.64.19,1-3.45.68-.2-1Z"/><path class="cls-34" d="M37.92,116.45l-.2-1,.22,0,.2,1Z"/><path class="cls-36" d="M37.49,116.54l-.2-1,.43-.1.2,1Z"/><path class="cls-34" d="M37.29,115.58l.2,1-.43.09-.2-1Z"/><path class="cls-37" d="M36.85,116.68l-.2-1,.21,0,.2,1Z"/><path class="cls-27" d="M36.42,116.77l-.21-1,.44-.09.2,1Z"/><path class="cls-27" d="M34.06,115.27l.21,1-.21,0-.21-1Z"/><path class="cls-34" d="M32.33,113.62l-.22,0-.21-1,.22,0Z"/><path class="cls-27" d="M36,115.86l.21,1-.43.09-.21-1Z"/><path class="cls-38" d="M36.63,117.74l-.22,0-.2-1-.21-1,.21,0,.21,1Z"/><path class="cls-39" d="M33.85,114.3l.22,0,.21,1-.22,0Z"/><path class="cls-27" d="M36.62,118.75l-.21-1,.22,0,.2,1Z"/><path class="cls-27" d="M33.21,112.43l-.22-1,.22,0,.22,1Z"/><path class="cls-39" d="M56.3,108.28l-.22,0-.14-1,.23,0Z"/><path class="cls-27" d="M43.13,114.42l.18,1-.21,0-.18-1Z"/><path class="cls-27" d="M41.59,115.72l-.19-1,.65-.12.19,1Z"/><path class="cls-27" d="M44.26,113.21l-.18-1,.22,0,.17,1Z"/><path class="cls-27" d="M44.75,117.12l-.18-1,.43-.07.18,1Z"/><path class="cls-39" d="M89.93,115.43h-.22l0-1h.22Z"/><path class="cls-27" d="M87.9,112.53l0-1h.43l0,1Z"/><path class="cls-27" d="M110.56,117.66h-.21l.05-1h.21Z"/><path class="cls-28" d="M106.53,116.51l3.87.16-.05,1h.21l.43,0,.64,0,.06-1h.21l-.05,1,.64,0,0,1c-5.34-.3-10.68-.47-16-.45v-1H96.2v1q-11.86,0-23.7,1l-.08-1-.22,0,.09,1-.85.08-.09-1-.22,0,.09,1-1.06.11-.19-2c1.54-.15,3.08-.29,4.61-.39s3.08-.26,4.62-.33l.06,1h.22l-.06-1c3.72-.23,7.45-.39,11.18-.46l0,1h.22l0-1,3.66-.06v1h.22v-1h.86v1h.22v-1c3.44,0,6.88,0,10.33.15l0,1,.43,0Z"/><path class="cls-34" d="M111.69,116.74l-.06,1-.64,0,.05-1Z"/><path class="cls-28" d="M118.62,119.17l-.85-.06c-1.71-.16-3.42-.23-5.12-.34l0-1,.22,0,.43,0,.21,0,.43,0h.21l1.93.12h.21l.43,0,.22,0,.42,0,.43,0,.21,0,.43,0,.43,0,.21,0,1.93.15-.09,1Z"/><path class="cls-34" d="M116.34,118h-.21l.07-1h.21Z"/><path class="cls-27" d="M117.84,118.12l-.43,0,.08-1,.42,0Z"/><path class="cls-27" d="M117,118.06l-.22,0,.07-1h.22Z"/><path class="cls-40" d="M118.48,118.17l-.43,0,.08-1,.43,0Z"/><path class="cls-34" d="M119.12,118.23l-.21,0,.08-1h.21Z"/><path class="cls-41" d="M112.49,117.77l-.64,0,.05-1,.65,0Z"/><path class="cls-34" d="M113.56,117.84l-.21,0,.06-1h.21Z"/><path class="cls-27" d="M112.92,117.8l-.22,0h-.21l.06-1,.43,0Z"/><path class="cls-34" d="M114.2,117.87H114l.06-1h.21Z"/><path class="cls-42" d="M117.69,120.09l.08-1,.85.06-.08,1Z"/><path class="cls-27" d="M104.83,99.7h-.46l0-1h.46Z"/><path class="cls-41" d="M104.15,99.68l0-1h.23l0,1Z"/><path class="cls-27" d="M103,99.66l0-1,1.14,0,0,1Z"/><path class="cls-27" d="M102.78,99.65h-.46l0-1h.46Z"/><path class="cls-41" d="M103,99.66h-.23l0-1H103Z"/><path class="cls-43" d="M100.5,99.61v-1l1.83,0,0,1Z"/><path class="cls-44" d="M107.91,119.53l0,1-2.33-.09,0-1Z"/><path class="cls-45" d="M108.08,120.52l0-1,1.27.06,0,1Z"/><path class="cls-41" d="M108.13,119.53l0,1h-.21l0-1Z"/><path class="cls-46" d="M99,120.29v-1c2.13,0,4.26.08,6.39.12l0,1C103.21,120.37,101.08,120.3,99,120.29Z"/><path class="cls-27" d="M111.53,119.69l0,1-.43,0,0-1Z"/><path class="cls-47" d="M109.57,120.58l0-1,1.49.07,0,1Z"/><path class="cls-27" d="M100.27,99.6h-.46v-1h.46Z"/><path class="cls-27" d="M99.13,99.59h-.46v-1h.46Z"/><path class="cls-34" d="M99.59,99.59h-.23v-1h.23Z"/><path class="cls-41" d="M99.36,99.59h-.23v-1h.23Z"/><path class="cls-39" d="M100,103.54h-.23v-1H100Z"/><path class="cls-28" d="M115.12,103.12l-.06,1c-5-.34-10-.47-15.06-.56v-1C105.05,102.65,110.09,102.78,115.12,103.12Z"/><path class="cls-28" d="M81.78,103.9l0-1q9-.44,18-.37v1Q90.77,103.45,81.78,103.9Z"/><path class="cls-28" d="M94,109.45v-1H99.5v1Z"/><path class="cls-27" d="M98.45,99.59h-.69v-1h.68Z"/><path class="cls-41" d="M97.76,99.59h-.23v-1h.23Z"/><path class="cls-27" d="M96.39,98.6h1.15v1H96.39Z"/><path class="cls-41" d="M96.17,99.59v-1h.22v1Z"/><path class="cls-40" d="M96.17,99.59h-.46v-1h.46Z"/><path class="cls-41" d="M94.34,99.59h-.45v-1h.46Z"/><path class="cls-27" d="M94.57,99.59h-.23v-1h.22Z"/><path class="cls-48" d="M95.71,99.59H94.57v-1h1.15Z"/><path class="cls-27" d="M92.75,99.61l0-1,1.15,0v1Z"/><path class="cls-41" d="M98.54,119.3v1h-.21v-1Z"/><path class="cls-49" d="M98.75,120.29h-.21v-1h.22Z"/><path class="cls-50" d="M95.78,120.28v-1h2.35v1Z"/><path class="cls-51" d="M94.29,120.28v-1h1.07v1Z"/><path class="cls-34" d="M94.29,120.28h-.21v-1h.21Z"/><path class="cls-52" d="M92,120.33l0-1,2.13,0v1Z"/><path class="cls-28" d="M95.58,123.24v1h-.84v-1Z"/><path class="cls-28" d="M92.23,124.26v-1l2.31,0v1Z"/><path class="cls-28" d="M112.37,123.69l-.06,1c-5.5-.3-11-.48-16.52-.44v-1C101.32,123.2,106.85,123.39,112.37,123.69Z"/><path class="cls-41" d="M112.58,123.7l-.06,1h-.21l.06-1Z"/><path class="cls-28" d="M115.29,104.12l.06-1c2.25.12,4.5.33,6.75.5l-.08,1C119.77,104.45,117.53,104.23,115.29,104.12Z"/><path class="cls-34" d="M120.37,121.29l-.09,1-.21,0,.09-1Z"/><path class="cls-53" d="M112.06,121.69l0-1,4,.24,4,.32-.09,1-4-.31Z"/><path class="cls-27" d="M111.9,120.7l-.05,1h-.21l0-1Z"/><path class="cls-41" d="M111.9,120.7h.21l0,1h-.21Z"/><path class="cls-27" d="M37.44,122.6l-.2-1,.42-.09.2,1Z"/><path class="cls-34" d="M39.13,122.24l-.21,0-.21-1,.22,0Z"/><path class="cls-28" d="M41,121.86l.22,0,.42-.09.21,0,.21,0,.19,1c-1.05.21-2.11.39-3.15.63l-.21,0-.42.1-.42.09-.42.09-.21-1,.42-.09,1.06-.23.21,0C39.76,122.1,40.39,122,41,121.86Z"/><path class="cls-34" d="M41.24,121.82l-.22,0-.19-1,.21,0Z"/><path class="cls-34" d="M41.47,120.77l.21,0,.19,1-.21,0Z"/><path class="cls-34" d="M39.11,124.26l-.2-1,.21,0,.2,1Z"/><path class="cls-34" d="M38.07,123.48l.42-.09.2,1-.42.09Z"/><path class="cls-28" d="M41.45,106.71l.19,1-4.43.87-4.42.94-.21-1,4.43-1Z"/><path class="cls-54" d="M44,108.24l-.17-1,.22,0,.17,1Z"/><path class="cls-27" d="M43.86,107.27l-.22,0-.23,0-.17-1,.67-.12.17,1Z"/><path class="cls-34" d="M42.75,107.47l-.23,0-.18-1,.23,0Z"/><path class="cls-41" d="M42.52,107.51l-.22,0-.18-1,.22,0Z"/><path class="cls-41" d="M42.08,107.59l-.22,0-.18-1,.22,0Z"/><path class="cls-54" d="M42.3,107.55l.18,1-.22,0-.18-1Z"/><path class="cls-40" d="M41.82,108.65l-.18-1,.22,0,.22,0,.18,1Z"/><path class="cls-27" d="M42.52,107.51l.18,1-.22,0-.18-1Z"/><path class="cls-55" d="M42.75,107.47l.22,0,.22,0,.22,0,.23,0,.17,1-1.11.2-.18-1Z"/><path class="cls-27" d="M42.08,107.59l-.18-1,.22,0,.18,1Z"/><path class="cls-27" d="M43.19,107.39l-.22,0-.18-1,.22,0Z"/><path class="cls-28" d="M32.36,108.58l.21,1-.22,0-.22-1Z"/><path class="cls-40" d="M37.23,122.65l-.42.09-.21-1,.43-.1Z"/><path class="cls-28" d="M37.44,123.61l-1.89.41-.21-1,1.47-.32.42-.09Z"/><path class="cls-27" d="M37,126.73l-.2,0-.22-1,.21,0Z"/><path class="cls-53" d="M38.48,125.4l.2,1-1.45.31-.21-1Z"/><path class="cls-56" d="M42.65,124.55l.19,1c-1.32.26-2.64.51-4,.8l-.2-1C40,125.06,41.33,124.81,42.65,124.55Z"/><path class="cls-27" d="M56.12,105.33l-.22,0-.14-1,.23,0Z"/><path class="cls-34" d="M55.67,105.39l-.22,0-.14-1,.23,0Z"/><path class="cls-41" d="M55.45,105.42l-.23,0-.13-1,.22,0Z"/><path class="cls-57" d="M55.9,105.36l.22,0,.22,0,.14,1-1.79.24-.14-1,.23,0,.22,0,.22,0,.23,0,.22,0Z"/><path class="cls-34" d="M55,105.48l-.14-1,.23,0,.13,1Z"/><path class="cls-34" d="M56.57,105.26l-.23,0-.13-1,.22,0Z"/><path class="cls-46" d="M56.79,105.23l.22,0,.23,0,.89-.12-.12-1,.44-.06.13,1,.22,0,.13,1-2.23.3-.13-1Z"/><path class="cls-27" d="M56.88,104.23l.13,1-.22,0-.13-1Z"/><path class="cls-27" d="M58,104.08l.12,1-.89.12-.13-1Z"/><path class="cls-41" d="M53.44,105.7l-.23,0-.14-1,.22,0Z"/><path class="cls-58" d="M53.21,105.73l.23,0,.67-.1.22,0,.14,1-3.34.51-.15-1,.23,0,.22,0,.22,0,.23,0,.44-.07.22,0,.45-.07-.14-1,.22,0Z"/><path class="cls-27" d="M54,104.62l.14,1-.67.1-.15-1Z"/><path class="cls-27" d="M52.54,105.84l-.14-1,.45-.07.14,1Z"/><path class="cls-41" d="M54.47,106.54l-.14-1,.22,0,.14,1Z"/><path class="cls-34" d="M54.19,104.59l.45-.06.14,1-.23,0-.22,0Z"/><path class="cls-34" d="M51.65,106l-.22,0-.15-1,.22,0Z"/><path class="cls-34" d="M51.21,106l-.23,0-.22,0-.15-1,.45-.07Z"/><path class="cls-41" d="M50.91,107.09l-.15-1,.22,0,.15,1Z"/><path class="cls-45" d="M44.7,108.13l-.17-1,.22,0,.22,0,.22,0,.22,0,.23,0,.22,0,.22,0,.22,0,.23,0-.17-1,.22,0,.17,1,.22,0,1.34-.24.22,0,.22,0,.23,0,.22,0,.22,0,.22,0,.23,0,.67-.1.22,0,.15,1C48.83,107.39,46.77,107.76,44.7,108.13Z"/><path class="cls-41" d="M51.73,105l.15,1-.23,0-.15-1Z"/><path class="cls-27" d="M52.32,105.87l-.44.07-.15-1,.44-.07Z"/><path class="cls-41" d="M52.32,105.87l-.15-1,.23,0,.14,1Z"/><path class="cls-41" d="M49,106.39l-.23,0-.16-1,.23,0Z"/><path class="cls-34" d="M48.75,106.43l-.22,0-.16-1,.22,0Z"/><path class="cls-27" d="M49.49,105.31l.15,1-.22,0-.16-1Z"/><path class="cls-34" d="M48.82,105.42l.22,0,.16,1-.22,0Z"/><path class="cls-27" d="M49.71,105.28l.67-.11.16,1-.67.1Z"/><path class="cls-41" d="M47,106.73l-.22,0-.17-1,.23,0Z"/><path class="cls-34" d="M46.53,106.8l-.23,0-.16-1,.22,0Z"/><path class="cls-27" d="M48.15,105.52l.16,1-1.34.24-.16-1Z"/><path class="cls-41" d="M44.53,107.16l.17,1-.22,0-.18-1Z"/><path class="cls-34" d="M44.3,107.19l-.17-1,.45-.07.17,1-.22,0Z"/><path class="cls-34" d="M45,106.07l.17,1-.22,0-.17-1Z"/><path class="cls-41" d="M46.08,106.88l-.22,0-.17-1,.22,0Z"/><path class="cls-41" d="M45.41,107l-.22,0-.17-1,.22,0Z"/><path class="cls-34" d="M45.47,106l.17,1-.23,0-.17-1Z"/><path class="cls-27" d="M58.68,104l.12,1-.22,0-.13-1Z"/><path class="cls-54" d="M59,104.93l-.23,0-.12-1,.22,0Z"/><path class="cls-28" d="M53,120.72l-.15-1,3-.47.14,1,.21,0-.14-1c4.55-.62,9.11-1.21,13.68-1.62l.19,2c-2.56.22-5.11.53-7.65.82l-.12-1-.22,0,.12,1-2.75.36-.13-1-.21,0,.13,1c-2,.26-4.1.57-6.14.9l-.15-1Z"/><path class="cls-28" d="M52.77,121.76c-1.83.27-3.65.6-5.48.92l-.17-1-.42.07-.64.11-1.47.28-.42.08-1.69.33-.19-1,.42-.08.43-.09.21,0,.63-.12c1.44-.3,2.9-.52,4.34-.78s2.9-.51,4.36-.72l.15,1-.21,0Z"/><path class="cls-27" d="M43.14,121.44l-.43.09-.18-1,.42-.08Z"/><path class="cls-41" d="M43.16,120.44l.19,1-.21,0-.19-1Z"/><path class="cls-27" d="M43.8,120.31l.18,1-.63.12-.19-1Z"/><path class="cls-27" d="M46.7,121.78l.17,1-.63.11-.18-1Z"/><path class="cls-34" d="M44.35,123.22l-.18-1,.42-.08.18,1Z"/><path class="cls-41" d="M46.87,122.75l-.17-1,.42-.07.17,1Z"/><path class="cls-28" d="M61.57,121.49l.12,1-4.83.66-.14-1Z"/><path class="cls-28" d="M46.17,124.88l-.17-1,5.24-.92,5.26-.81.15,1L51.4,124Z"/><path class="cls-28" d="M92.2,108.49l0,1a291.44,291.44,0,0,0-47.35,4.62l-.18-1A292.4,292.4,0,0,1,92.2,108.49Z"/><path class="cls-28" d="M43.05,125.48l-.19-1,2.93-.57.18,1Z"/><path class="cls-27" d="M48.57,127.46l-.21,0-.17-1,.21,0Z"/><path class="cls-54" d="M73.85,100.46l-.46,0-.07-1,.45,0Z"/><path class="cls-27" d="M74.08,100.44l-.23,0-.08-1,.23,0Z"/><path class="cls-27" d="M73.39,100.5h-.22l-.08-1,.23,0Z"/><path class="cls-47" d="M78.34,99.16l.06,1c-1.45.07-2.89.18-4.32.29l-.08-1C75.45,99.35,76.89,99.23,78.34,99.16Z"/><path class="cls-59" d="M71.12,100.67l-.08-1,2-.16.08,1Z"/><path class="cls-28" d="M81.51,102.93l0,1c-2.55.15-5.1.28-7.64.5l-.07-1C76.4,103.21,79,103.07,81.51,102.93Z"/><path class="cls-51" d="M61.16,105.66l-.12-1c4.19-.5,8.38-.93,12.58-1.25l.08,1C69.51,104.74,65.33,105.17,61.16,105.66Z"/><path class="cls-41" d="M61,104.69l.12,1-.22,0-.12-1Z"/><path class="cls-60" d="M59.38,105.88l-.13-1,.23,0-.13-1,.23,0,.12,1,.22,0,.68-.08.22,0,.12,1C60.42,105.75,59.9,105.8,59.38,105.88Z"/><path class="cls-27" d="M59.8,103.84l.68-.08.12,1-.68.08Z"/><path class="cls-34" d="M60.93,103.71l.11,1-.22,0-.12-1Z"/><path class="cls-41" d="M59.7,104.84l-.12-1,.22,0,.12,1Z"/><path class="cls-27" d="M59.48,104.87l-.23,0-.12-1,.22,0Z"/><path class="cls-61" d="M67.49,101l-.1-1,3.42-.33.08,1Z"/><path class="cls-54" d="M67.26,101l-.45,0-.1-1,.46,0Z"/><path class="cls-27" d="M66.81,101.08l-.23,0-.1-1,.23,0Z"/><path class="cls-27" d="M67.26,101l-.09-1,.22,0,.1,1Z"/><path class="cls-54" d="M65.45,101.21l-.11-1,1.14-.11.1,1Z"/><path class="cls-41" d="M72.3,124.31l-.21,0-.09-1,.21,0Z"/><path class="cls-62" d="M72.71,124.27l.21,0,.09,1-3.34.32-.09-1-.21,0-.42,0-.1-1,1.05-.1.1,1,1.46-.14.21,0-.09-1,.42,0,.09,1,.21,0-.09-1,.42,0Z"/><path class="cls-41" d="M71.67,124.37l-.21,0-.09-1,.21,0Z"/><path class="cls-39" d="M72.84,123.27l.08,1-.21,0-.08-1Z"/><path class="cls-27" d="M70,124.53l-.1-1,1.47-.14.09,1Z"/><path class="cls-27" d="M69.37,124.59l.21,0,.09,1-.2,0Z"/><path class="cls-63" d="M76.9,124l.21,0h.21l.21,0-.07-1,.63,0,.07,1h.21l-.07-1h.21l.07,1,.21,0h.42l1.26-.07h.21l.83,0h.21l1.26-.08h.63l0-1h.21l0,1,.84,0h.42l1.47,0h.21l.84,0h1.05l0-1,1.47,0,0,1h.21l0-1,1,0,0,1h.42l0,1q-9.31.17-18.6,1l-.09-1,1.26-.1.21,0,.84-.06.21,0Z"/><path class="cls-27" d="M75.57,123.06l1.26-.1.07,1-1.25.09Z"/><path class="cls-41" d="M77,123l.07,1-.21,0-.07-1Z"/><path class="cls-27" d="M74.6,124.12l-.08-1,.84-.06.08,1Z"/><path class="cls-41" d="M73.13,124.24h-.21l-.08-1,.21,0Z"/><path class="cls-27" d="M74.39,124.14l-1.26.1-.08-1,1.26-.09Z"/><path class="cls-41" d="M88.23,123.37H88l0-1h.21Z"/><path class="cls-27" d="M88,123.37h-.21l0-1H88Z"/><path class="cls-41" d="M88.65,123.35h-.21l0-1h.21Z"/><path class="cls-27" d="M88.44,123.36h-.21l0-1h.21Z"/><path class="cls-27" d="M87.6,123.39l-.84,0,0-1,.85,0Z"/><path class="cls-27" d="M85.08,123.48l0-1,1.47-.06,0,1Z"/><path class="cls-34" d="M91.59,123.29h-.21l0-1h.21Z"/><path class="cls-27" d="M81.46,122.67l.05,1-.83,0-.06-1Z"/><path class="cls-27" d="M79.21,123.79l-.06-1,1.26-.08.06,1Z"/><path class="cls-41" d="M79.21,123.79H79l-.07-1h.22Z"/><path class="cls-39" d="M79,123.8h-.21l-.07-1h.21Z"/><path class="cls-41" d="M78.79,123.81l-.21,0-.07-1h.21Z"/><path class="cls-41" d="M77.53,123.9l-.21,0-.07-1h.21Z"/><path class="cls-34" d="M77.32,123.92h-.21L77,123l.21,0Z"/><path class="cls-41" d="M78.16,123.85l-.07-1,.21,0,.07,1Z"/><path class="cls-27" d="M84.87,123.49h-.21l0-1h.21Z"/><path class="cls-41" d="M83.77,122.55l.85,0,0,1-.84,0Z"/><path class="cls-41" d="M83.4,123.55l-.05-1,.21,0,0,1Z"/><path class="cls-34" d="M83.4,123.55h-.21l0-1h.21Z"/><path class="cls-41" d="M83.19,123.56H83l0-1h.21Z"/><path class="cls-27" d="M83,123.57l-1.26.08,0-1,1.26-.07Z"/><path class="cls-34" d="M71,121.47l-.21,0-.09-1,.21,0Z"/><path class="cls-28" d="M89.6,119.38l0,1q-9.33.24-18.64,1.1l-.09-1Q80.22,119.64,89.6,119.38Z"/><path class="cls-28" d="M69.71,121.59l-.09-1,1.06-.1.09,1Z"/><path class="cls-28" d="M61.9,122.44l-.12-1c2.54-.29,5.08-.62,7.62-.84l.1,1C67,121.83,64.44,122.16,61.9,122.44Z"/><path class="cls-64" d="M68.32,124.69l-.1-1,.42,0,.1,1Z"/><path class="cls-27" d="M68.32,124.69l-.21,0-.1-1,.21,0Z"/><path class="cls-65" d="M63.86,101.38l-.11-1,1.37-.16.1,1Z"/><path class="cls-54" d="M63.63,101.41l-.45,0-.11-1,.46,0Z"/><path class="cls-27" d="M63.86,101.38l-.23,0-.1-1,.22,0Z"/><path class="cls-41" d="M62.73,101.52l-.23,0-.11-1,.23,0Z"/><path class="cls-27" d="M63.18,101.46l-.45.06-.11-1,.45-.06Z"/><path class="cls-27" d="M91.15,99.64l0-1,1.38,0v1Z"/><path class="cls-27" d="M90.92,99.65h-.45l0-1h.45Z"/><path class="cls-41" d="M91.15,99.64h-.23l0-1h.23Z"/><path class="cls-27" d="M90.24,99.66h-.46l0-1h.46Z"/><path class="cls-54" d="M89.78,99.67h-.22l0-1h.23Z"/><path class="cls-27" d="M89.56,99.67h-.23l0-1h.23Z"/><path class="cls-41" d="M90.24,99.66l0-1h.23l0,1Z"/><path class="cls-66" d="M88.64,99.69l0-1h.68l0,1Z"/><path class="cls-27" d="M88.64,99.69h-.22l0-1h.23Z"/><path class="cls-41" d="M88.42,99.69h-.23l0-1h.23Z"/><path class="cls-41" d="M87.51,99.72h-.23l0-1h.22Z"/><path class="cls-27" d="M87.47,98.74l.69,0,0,1-.68,0Z"/><path class="cls-27" d="M86.14,99.78l0-1,1.15,0,0,1Z"/><path class="cls-41" d="M86.14,99.78h-.23l0-1h.22Z"/><path class="cls-27" d="M84.54,99.84l0-1,1.38,0,0,1Z"/><path class="cls-28" d="M93.75,108.47v1l-.88,0,0-1Z"/><path class="cls-28" d="M92.64,108.49l0,1h-.22l0-1Z"/><path class="cls-28" d="M91.75,120.33h-.22v-1h.21Z"/><path class="cls-28" d="M89.84,120.36l0-1,1.49,0,0,1Z"/><path class="cls-41" d="M83.18,99.89H83l0-1h.23Z"/><path class="cls-27" d="M83,99.9h-.23l0-1h.22Z"/><path class="cls-54" d="M82.27,99.93l0-1,.46,0,0,1Z"/><path class="cls-27" d="M82.27,99.93H82L82,99h.23Z"/><path class="cls-27" d="M80.67,100h-.23l0-1,.23,0Z"/><path class="cls-66" d="M82,99.94l-1.37.08,0-1L82,99Z"/><path class="cls-54" d="M80,100.06l-.06-1,.46,0,0,1Z"/><path class="cls-27" d="M80,100.06h-.23l-.05-1h.22Z"/><path class="cls-67" d="M78.79,99.14l.92-.06.05,1-.91.05Z"/></g></g></g></g></svg>