<svg xmlns="http://www.w3.org/2000/svg" viewBox="0 0 205.05 157.51"><defs><style>.cls-1{fill:#bf4f00;}.cls-2{fill:#b54b00;}.cls-3{fill:#ab4700;}.cls-4{fill:#a14300;}.cls-5{fill:#973f00;}.cls-6{fill:#8d3a00;}.cls-7{fill:#833600;}.cls-8{fill:#793200;}.cls-9{fill:#6f2e00;}.cls-10{fill:#652a00;}.cls-11{fill:#5a2500;}.cls-12{fill:#502100;}.cls-13{fill:#461d00;}.cls-14{fill:#3c1900;}.cls-15{fill:#321500;}.cls-16{fill:#281100;}.cls-17{fill:#1e0c00;}.cls-18{fill:#140800;}.cls-19{fill:#08000a;}.cls-20,.cls-21{fill:#fff;}.cls-20{stroke:#000;stroke-miterlimit:10;stroke-width:2px;}.cls-22{fill:#1d1d1b;}</style></defs><g id="Camada_2" data-name="Camada 2"><g id="planeta"><path d="M136.92,46.58c4.37-2,9-4.14,13.75-5.9a57,57,0,0,1,14.52-3.56,60.26,60.26,0,0,1,17.3,1.09,66.55,66.55,0,0,1,15.72,5.34,10.93,10.93,0,0,1,5.3,4.73,8,8,0,0,1,.62,3.37,13,13,0,0,1-.79,3.84,30.87,30.87,0,0,1-4.15,7.64,70.81,70.81,0,0,1-5.79,7,144.52,144.52,0,0,1-13.55,12.59c-4.78,3.94-9.64,7.81-14.71,11.41a145.39,145.39,0,0,1-32.75,18,180,180,0,0,1-17.93,5.54q-9.08,2.36-18.31,4a412.5,412.5,0,0,1-52.4,6.11l-6.59.24c-2.17.08-4.37.17-6.6.21a74.15,74.15,0,0,1-13.63-.75,40.08,40.08,0,0,1-6.86-1.73,28.09,28.09,0,0,1-3.46-1.5l-1.71-1.1a18.44,18.44,0,0,1-1.6-1.37,17.42,17.42,0,0,1-1.4-1.67,18.61,18.61,0,0,1-1.07-2A15.29,15.29,0,0,1,.21,116a13,13,0,0,1-.2-2.12,16.75,16.75,0,0,1,1.86-7.32,44.08,44.08,0,0,1,4.69-7.23c1.63-2.07,3.25-4,4.91-5.82,3.35-3.67,6.8-7.26,11.26-11.31a68.56,68.56,0,0,1,9.53-7.1,63.07,63.07,0,0,1,10.89-5.48,23.39,23.39,0,0,1-8.22,5.46c-3,1.35-6.29,2.5-9.16,4.12C19.14,83,14.23,88.52,9.89,94.32,7.93,97,6,99.64,4.17,102.57c-.45.72-.84,1.5-1.28,2.25s-.79,1.56-1.12,2.41a18.64,18.64,0,0,0-1.42,5.41,11.41,11.41,0,0,0,1.1,6.11,12.4,12.4,0,0,0,1.82,2.64,15.09,15.09,0,0,0,2.33,1.94A26.69,26.69,0,0,0,15.43,127c7,1.28,14,.9,20.7.59,3.34-.15,6.8-.27,10.23-.48s6.89-.44,10.34-.72c13.8-1.14,27.61-3,41.21-5a122.92,122.92,0,0,0,17.92-4.13c5.68-1.77,11.22-3.73,16.89-6,3-1.28,6-2.1,9-3.06a48.1,48.1,0,0,0,8.8-3.52c5.57-3,10.09-8.32,15.76-11.76a1.87,1.87,0,0,0-.61,1c2.24-3.93,6.81-7.56,11.9-11.13s10.54-7.08,14.34-10.61c4.19-3.9,8.29-8.34,11-13.42A15.58,15.58,0,0,0,205,51c0-.16,0-.32,0-.47l-.09-.46c-.06-.29-.09-.6-.17-.88a8.06,8.06,0,0,0-.69-1.62,8.73,8.73,0,0,0-2.29-2.6c-.5-.39-1.07-.72-1.58-1.09s-1.16-.62-1.73-.94c-1.25-.58-2.47-1.19-3.75-1.68a58,58,0,0,0-7.82-2.54,69.06,69.06,0,0,0-8.23-1.51,71.42,71.42,0,0,0-8.58-.46c-6,0-12.12,2-17.85,4.17s-11.31,4.71-16.78,6.19"/><path d="M163.28,49.36a2.52,2.52,0,0,1-1.09.35c-.44,0-.79-.12-.57-.31a3,3,0,0,1,1.6-.36c.6,0,1,.16.73,0a2.26,2.26,0,0,1-1.16-1.5,2,2,0,0,1,.67-2,3,3,0,0,1,2.4-.65A3.14,3.14,0,0,1,168,46.28c.34.53.79,1,1.18,1.7a5.51,5.51,0,0,1,.75,2.36c.12,1.66-.82,3.19-2.49,3-1.12-.1-1.22.27-1.16,1.37,0,.58-.45.87-1,.63-1.35-2.32.44-.41,1.19-.06s.6-.56.48-1.27.27-.77.78-.87,1.16-.21,1.39-.64a4.46,4.46,0,0,0,0-3.41,18.9,18.9,0,0,1-1.15-3,1.05,1.05,0,0,0-1.06-.78,5.75,5.75,0,0,0-1.48.21c-.23,0-.23-.32-.3-.71S165,44,164.73,44s-.58.53-.81,1-.35,1-.5.87c0-.06,0-.24,0-.53-.07,2.08.07,2.41-.08,2.28s-.63-.66-.8-.56c-.34.18-.27.93.56,1.51.44.31.36.29,0,.31a4.14,4.14,0,0,0-1.33.27c-.46.22.36.39,1,.24s1.1-.54.41-.07"/><path d="M153.09,87c-.45-.25-2.24-.33-1.82-.82a4.25,4.25,0,0,1,1.54-.73c.57-.19,1-.24.71-.35A3.21,3.21,0,0,1,152,83.92a1.93,1.93,0,0,1-.06-2,2.4,2.4,0,0,1,2.15-1.32,2.75,2.75,0,0,1,2.57,2,10.35,10.35,0,0,1,.4,2.32,5,5,0,0,1-.41,2.39,3.49,3.49,0,0,1-.74,1.07,3.32,3.32,0,0,1-.55.44,3.6,3.6,0,0,1-.52.26,2.17,2.17,0,0,1-2.18-.38c-.87-.77-1.15-.54-1.86.32a.69.69,0,0,1-1.22-.21c.61-2.62.61,0,1,.76s.88,0,1.26-.66.72-.42,1.23-.21,1.14.49,1.61.24a3.23,3.23,0,0,0,.7-.53,3.54,3.54,0,0,0,.62-.79,4.84,4.84,0,0,0,.55-1.73,13.76,13.76,0,0,0,.11-1.67c0-.55,0-1.1.06-1.81a1.4,1.4,0,0,0-1.16-1.3,2.78,2.78,0,0,0-1.68.19c-.23.1-.34-.25-.54-.61s-.46-.71-.72-.64-.37.7-.4,1.27,0,1.06-.15,1a4,4,0,0,0-.17-.5c.64,2,.86,2.25.66,2.18s-.78-.45-.89-.33.05.92,1,1.28c.5.2.41.26.1.42a10.14,10.14,0,0,0-1.28.64c-.42.29.38.44,1.07.53s1.29.16.55.58"/><path d="M18,109.39c-.11-.37-.53-.88-.78-1.41s-.35-1.07,0-1.34a4.32,4.32,0,0,1,2.09-.37c.74,0,1.28,0,1.35-.53a8.72,8.72,0,0,1,3.45-6c.26-.18.54-.36.82-.52s.59-.29.9-.42a6.34,6.34,0,0,1,2-.42,5.46,5.46,0,0,1,4.23,1.64,7,7,0,0,1,1.87,3.5,6.69,6.69,0,0,1-.61,4.16,5.92,5.92,0,0,1-2.82,2.77,4.49,4.49,0,0,1-1.93.4,3.88,3.88,0,0,1-1.74-.45c-1.42-.79-2.11-.64-3.49,0a1.91,1.91,0,0,1-2.26-.56c1.14-2.48,1.19.19,1.74,1s1.58.19,2.39-.38a2.53,2.53,0,0,1,2.28-.15,7.13,7.13,0,0,0,1.32.22,2.81,2.81,0,0,0,1.4-.27,6.53,6.53,0,0,0,3.22-4.81,6.93,6.93,0,0,0-.2-3.07A10.35,10.35,0,0,0,32,99.83a2.48,2.48,0,0,0-2.13-1.1,8.11,8.11,0,0,0-2.17.43c-.35.09-.61-.26-.94-.62s-.69-.73-1-.65-.64.69-.88,1.26-.43,1.12-.76,1a1.72,1.72,0,0,0,0-.54c.1,2.11-.17,2.52-.69,2.55s-1.3-.38-1.71-.17a2.81,2.81,0,0,0-1.42,2.82c.06.7-.26.92-.77,1.08a18.25,18.25,0,0,0-1.85.42c-.65.23-.21,1.09.26,1.74s.93,1.15,0,1.38"/><path class="cls-1" d="M71.94,1a14.17,14.17,0,1,1-8,18.36A14.17,14.17,0,0,1,71.94,1Z"/><path class="cls-2" d="M62.12,96.51a7.88,7.88,0,1,1-4.57-10.17A7.88,7.88,0,0,1,62.12,96.51Z"/><path class="cls-3" d="M79.09,7.7a8.46,8.46,0,1,1-.5,12A8.46,8.46,0,0,1,79.09,7.7Z"/><path class="cls-4" d="M61.87,47.39a8.09,8.09,0,1,1,3.66-10.84A8.09,8.09,0,0,1,61.87,47.39Z"/><path class="cls-5" d="M115,64.92a4.25,4.25,0,1,1-5,3.39A4.25,4.25,0,0,1,115,64.92Z"/><path class="cls-6" d="M103.78,82A5.13,5.13,0,1,1,101.71,75,5.13,5.13,0,0,1,103.78,82Z"/><path class="cls-7" d="M92.63,30.24a4.25,4.25,0,1,1-5.67,2A4.25,4.25,0,0,1,92.63,30.24Z"/><path class="cls-8" d="M85,58a10.33,10.33,0,1,1,2.71-14.35A10.34,10.34,0,0,1,85,58Z"/><path class="cls-9" d="M51.41,94.45a4.25,4.25,0,1,1,6,.31A4.23,4.23,0,0,1,51.41,94.45Z"/><path class="cls-10" d="M86.08,81.35A6,6,0,1,1,94.44,80,6,6,0,0,1,86.08,81.35Z"/><path class="cls-11" d="M126.64,18.76a7.1,7.1,0,1,1,9.57,3A7.11,7.11,0,0,1,126.64,18.76Z"/><path class="cls-12" d="M67.58,94.07a4.25,4.25,0,1,1-3.15,5.12A4.25,4.25,0,0,1,67.58,94.07Z"/><path class="cls-13" d="M102.1,7a10.56,10.56,0,1,1-3.51,14.52A10.56,10.56,0,0,1,102.1,7Z"/><path class="cls-14" d="M124.22,111a7.42,7.42,0,1,1-10.41,1.34A7.43,7.43,0,0,1,124.22,111Z"/><path class="cls-15" d="M109.06,40.13a4.25,4.25,0,1,1-1-5.93A4.26,4.26,0,0,1,109.06,40.13Z"/><path class="cls-16" d="M40.64,51.12a4.25,4.25,0,1,1,4-4.47A4.25,4.25,0,0,1,40.64,51.12Z"/><path class="cls-17" d="M64.21,115.46a14.06,14.06,0,1,1-19.56,3.63A14.06,14.06,0,0,1,64.21,115.46Z"/><path class="cls-18" d="M148.4,95.67A11.46,11.46,0,1,1,133.5,102,11.46,11.46,0,0,1,148.4,95.67Z"/><path class="cls-19" d="M78,9.88a4.54,4.54,0,1,1,6.23-1.55A4.53,4.53,0,0,1,78,9.88Z"/><path d="M61.32,141.82A12.68,12.68,0,1,1,46,132.51,12.68,12.68,0,0,1,61.32,141.82Z"/></g><g id="Camada_1-2" data-name="Camada 1"><path class="cls-20" d="M149.16,134.49h1.68s-2-32.84-30.06-41.45a32.82,32.82,0,1,0-50.87,0c-28.08,8.61-30.07,41.45-30.07,41.45H149.6"/><path class="cls-21" d="M149.16,134.49h1.68s-2-32.84-30.06-41.45a32.82,32.82,0,1,0-50.87,0c-28.08,8.61-30.07,41.45-30.07,41.45H149.6"/><path class="cls-22" d="M150.76,135.76h.08l1.4,0-.13-1.32a46.42,46.42,0,0,0-1.44-7.41,59.46,59.46,0,0,0-2.46-7.17,64.56,64.56,0,0,0-7.2-13,44.19,44.19,0,0,0-8.61-9.19,38.61,38.61,0,0,0-11.16-6.08L122,94a29.74,29.74,0,0,0,5.4-9.14,34.14,34.14,0,0,0-5.88-33.52,33.42,33.42,0,0,0-6.46-5.89,35.64,35.64,0,0,0-3.72-2.28c-.65-.33-1.32-.61-2-.92l-1-.45c-.33-.14-.68-.24-1-.36l-2.06-.7c-.7-.18-1.41-.33-2.11-.5l-1-.25c-.36-.07-.72-.09-1.08-.15l-2.14-.27a34.2,34.2,0,0,0-8.58.41,32.05,32.05,0,0,0-8.15,2.55l-1.91,1c-.64.3-1.21.74-1.82,1.1A32.44,32.44,0,0,0,75,47.12a33.12,33.12,0,0,0-5.71,6.24l-.62.86c-.19.3-.36.61-.54.91L67.06,57l-.89,1.92-.44,1-.35,1-.69,2-.5,2-.25,1-.14,1L63.51,69l-.09,2.1a20.82,20.82,0,0,0,0,2.09,29,29,0,0,0,.43,4.17,32.11,32.11,0,0,0,6.84,15l.92,1.12L70.2,94a43,43,0,0,0-7.26,3.07,37.06,37.06,0,0,0-8.82,6.8A42.62,42.62,0,0,0,47.6,113a53.08,53.08,0,0,0-4.21,10.5,55.61,55.61,0,0,0-2,11.08L39.84,133c18.91-.27,37.82-.41,56.3.31,11.37.44,19,.33,30.49-.11,6.16-.24,16.5-.21,23,0-6.11,1.34-12.69,0-18.93-.33a198,198,0,0,0-20.89.33c-12.4.55-25.61-.38-37.65-.35-10.53,0-21.34.2-32.29.37l1.24,1.31a54.65,54.65,0,0,1,2.15-11.47,52.59,52.59,0,0,1,4.54-10.87,37.46,37.46,0,0,1,16.68-15.9,47,47,0,0,1,5.77-2.25l1.51-.5-1-1.22a32.85,32.85,0,0,1-7.17-26.46,25.85,25.85,0,0,1,3.27-8.43c.33-.66.82-1.23,1.21-1.85a19.08,19.08,0,0,1,1.31-1.79l1.4-1.74c.51-.55,1-1.1,1.53-1.67A42.26,42.26,0,0,1,79.1,44.3a23.51,23.51,0,0,1,8.77-3.95,2.71,2.71,0,0,0-1,.52c3.48-2,9.71-2.93,15.82-1.42A32.76,32.76,0,0,1,111.4,43a38.85,38.85,0,0,1,3.67,2.53c.55.46,1.13.86,1.64,1.32l1.47,1.36a15.8,15.8,0,0,1,1.52,1.54c.48.54,1,1.06,1.45,1.63a35.15,35.15,0,0,1,2.54,3.59A33.66,33.66,0,0,1,127.41,63a35.66,35.66,0,0,1,.9,17.44,29.81,29.81,0,0,1-6.54,13.41l-.62-2A38.08,38.08,0,0,1,137.91,103a62.84,62.84,0,0,1,9.73,14.59,51.48,51.48,0,0,1,3.12,8.28,37.27,37.27,0,0,1,1.42,8.56l.06,1.51-1.4-.08-1.68-.1"/></g></g></svg>